<svg width="318" height="24" fill="none" xmlns="http://www.w3.org/2000/svg"><path d="M311.591 18.791c-1.368 3.6-2.485 4.663-5.06 4.663-1.049 0-2.394-.294-3.169-.701l.616-1.743c.889.407 1.755.61 2.667.61.957 0 1.664-.43 2.256-1.403.205-.362.365-.701.525-1.064l-5.243-13.016h2.188l4.126 10.594 3.807-10.594h2.119l-4.832 12.654Z" fill="#0A0A0A"/><path d="M300.284 16.369v-.09h-.068c-.752 1.833-2.257 3.01-4.468 3.01-2.416 0-3.943-1.335-3.943-3.554 0-1.154.364-2.082 1.185-2.784.684-.566 1.732-.951 3.191-1.177l1.869-.295c1.687-.271 2.257-.747 2.257-1.743 0-1.335-1.003-2.173-2.644-2.173-1.801 0-2.918.883-3.465 2.943l-1.96-.408c.752-2.739 2.69-4.233 5.425-4.233 2.94 0 4.673 1.585 4.673 4.618v5.32c0 1.29.387 1.72 1.527 1.72.251 0 .41-.022.57-.045v1.494c-.251.113-.798.181-1.277.181-1.869 0-2.872-.928-2.872-2.784Zm-6.337-.883c0 1.426.935 2.219 2.462 2.219 2.416 0 3.944-1.902 3.944-4.732V12c-.365.34-1.026.543-2.075.747l-1.709.317c-1.869.34-2.622.996-2.622 2.422ZM277.02 12.634c0-4.12 2.393-6.769 5.562-6.769 1.983 0 3.396 1.087 4.194 2.898h.068V.545h2.098v18.45h-2.029v-2.852h-.091c-.798 1.924-2.348 3.124-4.445 3.124-3.214 0-5.357-2.49-5.357-6.633Zm5.972 4.867c2.416 0 3.875-1.811 3.875-4.913 0-3.1-1.459-4.957-3.806-4.957-2.417 0-3.898 1.856-3.898 4.98 0 3.079 1.436 4.89 3.829 4.89ZM262.907 12.588c0-4.12 2.462-6.723 6.086-6.723 3.625 0 5.995 2.49 5.995 6.656 0 4.323-2.393 6.768-6.063 6.768-3.625 0-6.018-2.445-6.018-6.7Zm9.961-.022c0-3.124-1.459-4.935-3.875-4.935-2.507 0-3.943 1.72-3.943 4.89 0 3.169 1.436 4.98 3.92 4.98 2.508 0 3.898-1.698 3.898-4.935ZM264.077 3.285h-6.086v15.71h-2.143V3.285h-6.086V1.474h14.315v1.81Z" fill="#0A0A0A"/><path d="M226.382 1.09v5.253h8.428l-8.428 8.631v4.117h4.02l8.429-8.631v8.63h5.129v-18h-17.578Z" fill="#002AFF"/><path d="M1.598.938h7.87c4.377 0 6.665 2.246 6.665 5.004 0 1.904-1.082 3.198-2.582 3.882v.049c1.919.684 3 2.197 3 4.125 0 2.758-2.14 5.174-6.763 5.174h-8.19V.938Zm7.624 7.225c1.303 0 1.895-.659 1.895-1.392 0-.733-.59-1.415-1.895-1.415h-2.31v2.807h2.31Zm.074 6.59c1.377 0 2.042-.659 2.042-1.513 0-.854-.69-1.512-2.016-1.512h-2.41v3.027h2.384v-.002Zm8.385-3.002V.938h5.361v10.764c0 2.027 1.008 3.1 2.73 3.1 1.721 0 2.803-1.073 2.803-3.124V.938h5.387v10.813c0 4.59-3.098 7.885-8.19 7.885s-8.092-3.296-8.092-7.884h.001Zm29.931-5.249c-1.156-.804-3.124-1.366-4.722-1.366-1.45 0-2.189.464-2.189 1.074 0 .609.811.927 2.263 1.44 2.46.853 5.804 2 5.804 5.881 0 3.466-2.632 6.029-7.256 6.029-2.385 0-4.574-.684-5.927-1.586v-4.93c1.329 1.073 3.345 1.927 5.288 1.927 1.647 0 2.41-.61 2.41-1.293 0-.878-1.255-1.27-2.755-1.807-1.968-.708-5.09-1.977-5.09-5.517 0-3.197 2.534-5.809 7.058-5.809 1.992 0 3.787.513 5.116 1.27v4.687ZM50.144.938h5.361v18.234h-5.36V.938Zm24.422 18.234h-5.115l-6.616-9.787h-.025v9.787h-5.09V.938h5.116l6.616 9.617h.024V.938h5.09v18.234ZM76.78.938h12.69v4.736h-7.33V7.87h6.591v4.297h-6.59v2.27h7.329v4.735H76.78V.938Zm26.143 5.564c-1.155-.804-3.124-1.366-4.721-1.366-1.45 0-2.19.464-2.19 1.074 0 .609.811.927 2.263 1.44 2.46.853 5.804 2 5.804 5.881 0 3.466-2.632 6.029-7.256 6.029-2.385 0-4.574-.684-5.927-1.586v-4.93c1.33 1.073 3.345 1.927 5.288 1.927 1.647 0 2.41-.61 2.41-1.293 0-.878-1.255-1.27-2.755-1.807-1.968-.708-5.09-1.977-5.09-5.517 0-3.197 2.534-5.809 7.058-5.809 1.992 0 3.788.513 5.116 1.27v4.687Zm14.191 0c-1.156-.804-3.124-1.366-4.722-1.366-1.45 0-2.189.464-2.189 1.074 0 .609.811.927 2.263 1.44 2.46.853 5.803 2 5.803 5.881 0 3.466-2.632 6.029-7.255 6.029-2.385 0-4.574-.684-5.927-1.586v-4.93c1.328 1.073 3.345 1.927 5.287 1.927 1.648 0 2.411-.61 2.411-1.293 0-.878-1.255-1.27-2.755-1.807-1.969-.708-5.091-1.977-5.091-5.517 0-3.197 2.534-5.809 7.059-5.809 1.992 0 3.787.513 5.116 1.27v4.687Zm7.367 12.705h5.361V.975h-5.361v18.233-.001ZM148.9.975h-5.09v9.617h-.024L137.17.975h-5.116v18.233h5.09V9.421h.024l6.616 9.787h5.116V.975Zm8.629-.391c-4.526 0-7.058 2.611-7.058 5.809 0 3.539 3.124 4.808 5.09 5.516 1.5.538 2.755.927 2.755 1.807 0 .684-.763 1.293-2.41 1.293-1.943 0-3.961-.854-5.288-1.928v4.931c1.353.904 3.542 1.586 5.927 1.586 4.624 0 7.256-2.562 7.256-6.028 0-3.882-3.345-5.028-5.804-5.883-1.45-.512-2.263-.804-2.263-1.44 0-.634.737-1.073 2.189-1.073 1.598 0 3.566.562 4.722 1.367V1.853c-1.329-.757-3.124-1.27-5.116-1.27Zm7.523 18.623h5.361V.975h-5.361v18.233-.001Zm12.936-4.809h1.034c2.779 0 4.574-1.562 4.574-4.296s-1.795-4.32-4.574-4.32h-1.034v8.616Zm11.018-4.296c0 5.492-4.181 9.105-10.182 9.105h-6.197V.975h6.197c6.001 0 10.182 3.636 10.182 9.129v-.002Zm1.454 9.105h12.69V14.47h-7.329v-2.27h6.59V7.906h-6.59V5.71h7.329V.975h-12.69v18.233-.001Zm21.129-9.617c1.352 0 2.41-.635 2.41-1.904 0-1.27-1.058-1.904-2.434-1.904h-1.132V9.59h1.156Zm8.779 9.617h-6.321l-3.492-5.639h-.124v5.639h-5.361V.975h6.543c4.599 0 7.795 2.026 7.795 6.347 0 1.708-.763 4.197-3.813 5.467l4.772 6.42.001-.002Z" fill="#0A0A0A"/></svg>