<svg xmlns="http://www.w3.org/2000/svg" width="35" height="18"><path fill="currentColor" d="M2.416 7.752v-7.2h1.168v7.2H2.416ZM7.608 2.342c1.158 0 1.888.736 1.888 1.897v3.513H8.348V4.607c0-.813-.37-1.2-1.08-1.2-.662 0-1.168.484-1.168 1.152v3.193H4.952V2.468h.885l.127.784h.03c.3-.494.875-.91 1.614-.91ZM12.446 2.342c.613 0 1.246.174 1.635.445v1.046c-.38-.3-.983-.513-1.596-.513-.603 0-.934.232-.934.6 0 .397.399.542 1.07.735.837.223 1.771.504 1.771 1.588 0 .996-.788 1.635-2.101 1.635-.71 0-1.372-.193-1.859-.561V6.194c.438.397 1.051.716 1.82.716.652 0 1.021-.27 1.021-.658 0-.435-.457-.58-1.187-.803-.866-.252-1.654-.561-1.654-1.5 0-.92.76-1.607 2.014-1.607ZM15.851 1.442c-.38 0-.671-.28-.671-.648a.65.65 0 0 1 .671-.659c.38 0 .671.281.671.659 0 .367-.291.648-.67.648Zm-.574 6.31V2.468h1.148v5.284h-1.148ZM19.747 7.878c-1.246 0-2.404-1.074-2.404-2.768 0-1.694 1.149-2.768 2.394-2.768.74 0 1.42.368 1.77.987V0h1.15v7.752h-.954l-.137-.91a2.074 2.074 0 0 1-1.82 1.036Zm.272-1.045c.847 0 1.508-.707 1.508-1.723 0-1.006-.661-1.723-1.508-1.723-.866 0-1.518.717-1.518 1.723 0 1.016.652 1.723 1.518 1.723ZM28.504 5.013c0 .165-.01.31-.03.446h-3.823c.165.929.875 1.47 1.81 1.47.603 0 1.196-.212 1.731-.628v1.026a3.243 3.243 0 0 1-1.848.551c-1.742 0-2.793-1.123-2.793-2.748 0-1.694 1.187-2.788 2.608-2.788 1.284 0 2.345.92 2.345 2.671Zm-3.854-.319h2.764c-.03-.939-.603-1.403-1.265-1.403-.72 0-1.362.532-1.498 1.403ZM29.386 7.752V2.468h.914l.117.823h.02a1.677 1.677 0 0 1 1.488-.881c.146 0 .263.01.37.029v1.084a1.8 1.8 0 0 0-.399-.039c-.681 0-1.362.407-1.362 1.423v2.845h-1.148ZM2.718 13.497 2.268 18H.213l1.012-7.442H3.78l1.192 4.134h.02l1.162-4.134h2.474L9.649 18H7.576l-.42-4.503h-.04L5.832 18H4l-1.242-4.503h-.04ZM10.262 18v-7.442h5.168v1.933h-2.985v.896h2.685v1.754h-2.685v.926h2.985V18h-5.168ZM18.785 10.558c2.444 0 4.146 1.484 4.146 3.726S21.23 18 18.785 18H16.26v-7.442h2.524Zm-.34 1.962v3.517h.42c1.132 0 1.863-.637 1.863-1.753 0-1.126-.731-1.764-1.863-1.764h-.42ZM23.57 18v-7.442h2.184V18H23.57ZM34.054 18H31.78l-.49-1.465h-2.475L28.345 18H26.08l2.694-7.442h2.534L34.054 18Zm-4.017-5.24-.66 2.032h1.331l-.67-2.033Z"/></svg>
