<svg xmlns="http://www.w3.org/2000/svg" width="31" height="18"><path fill="currentColor" d="M6.967.16v7.513h-2.1L2.153 3.64h-.01v4.033H.053V.161h2.1l2.714 3.962h.01V.161h2.09ZM7.98 7.673V.161h5.207v1.95H10.18v.906h2.705v1.77H10.18v.935h3.008v1.951H7.98ZM20.544 7.673 19.22 3.087h-.02L17.92 7.673h-2.291L13.389.161h2.22l1.23 4.917h.021L18.192.161h2.018l1.373 4.928h.02L22.763.16h2.15l-2.17 7.512h-2.2ZM27.799 0c.817 0 1.554.211 2.099.523v1.93c-.475-.331-1.282-.562-1.938-.562-.595 0-.898.19-.898.442 0 .262.333.382.928.593 1.01.352 2.382.825 2.382 2.424 0 1.428-1.08 2.484-2.977 2.484-.979 0-1.877-.282-2.432-.654V5.15c.545.442 1.372.794 2.17.794.676 0 .989-.251.989-.533 0-.362-.515-.523-1.13-.744-.808-.291-2.09-.814-2.09-2.273 0-1.317 1.04-2.393 2.896-2.393ZM.37 17.873v-7.268h1.176v7.268H.37ZM5.601 12.412c1.167 0 1.902.743 1.902 1.915v3.546H6.346v-3.175c0-.82-.372-1.211-1.088-1.211-.667 0-1.177.488-1.177 1.162v3.224H2.925v-5.334h.892l.127.791h.03a1.906 1.906 0 0 1 1.627-.918ZM10.475 12.412c.618 0 1.255.176 1.647.45v1.054c-.382-.302-.99-.517-1.607-.517-.608 0-.942.234-.942.606 0 .4.402.546 1.079.742.843.225 1.784.508 1.784 1.602 0 1.006-.794 1.651-2.117 1.651-.716 0-1.383-.195-1.873-.567V16.3a2.7 2.7 0 0 0 1.833.723c.657 0 1.03-.273 1.03-.664 0-.44-.461-.586-1.196-.811-.873-.254-1.667-.567-1.667-1.514 0-.928.765-1.622 2.03-1.622ZM13.906 11.504c-.382 0-.677-.284-.677-.655 0-.38.295-.664.677-.664.382 0 .676.283.676.664 0 .371-.294.655-.676.655Zm-.579 6.369v-5.334h1.157v5.334h-1.156ZM17.83 18c-1.254 0-2.42-1.084-2.42-2.794s1.156-2.794 2.411-2.794c.745 0 1.431.371 1.784.997v-3.361h1.157v7.825h-.96l-.138-.918A2.09 2.09 0 0 1 17.831 18Zm.275-1.055c.853 0 1.52-.713 1.52-1.739 0-1.016-.667-1.739-1.52-1.739-.872 0-1.529.723-1.529 1.74 0 1.025.657 1.738 1.53 1.738ZM26.654 15.108c0 .166-.01.313-.03.45h-3.852c.166.938.882 1.485 1.823 1.485.608 0 1.206-.215 1.745-.635v1.035a3.263 3.263 0 0 1-1.863.557c-1.755 0-2.813-1.133-2.813-2.774 0-1.71 1.196-2.814 2.627-2.814 1.294 0 2.363.928 2.363 2.696Zm-3.882-.322h2.784c-.03-.948-.608-1.416-1.275-1.416-.725 0-1.372.537-1.51 1.416ZM27.543 17.873v-5.334h.921l.118.83h.02a1.689 1.689 0 0 1 1.5-.889c.146 0 .264.01.372.03v1.094a1.81 1.81 0 0 0-.402-.04c-.686 0-1.373.411-1.373 1.437v2.872h-1.157Z"/></svg>
