<svg xmlns="http://www.w3.org/2000/svg" width="75" height="18"><path fill="currentColor" d="M3.358.03c.815 0 1.548.21 2.091.522V2.48c-.472-.332-1.276-.562-1.93-.562-.593 0-.894.19-.894.441 0 .261.331.382.924.593 1.006.351 2.373.823 2.373 2.42 0 1.425-1.076 2.479-2.966 2.479-.975 0-1.87-.281-2.422-.653V5.17c.543.442 1.367.793 2.161.793.673 0 .985-.25.985-.532 0-.361-.513-.522-1.126-.743-.804-.29-2.08-.813-2.08-2.268C.474 1.104 1.509.03 3.358.03ZM6.587 7.69V.19h2.191v7.5H6.587ZM9.78 7.69V.19h2.191v5.522h2.945V7.69H9.78ZM15.456 7.69V.19h2.191v7.5h-2.19ZM24.368 7.349c-.583.291-1.256.522-2.12.522-2.182 0-3.97-1.596-3.97-3.925 0-2.34 1.788-3.946 3.97-3.946.864 0 1.537.23 2.12.522V2.65c-.603-.431-1.145-.632-1.84-.632-1.185 0-2.04.813-2.04 1.928 0 1.104.855 1.937 2.04 1.937.695 0 1.227-.25 1.84-.693V7.35ZM28.7 7.881c-2.242 0-3.99-1.626-3.99-3.946C24.71 1.616 26.467 0 28.7 0c2.251 0 3.99 1.616 3.99 3.935 0 2.32-1.739 3.946-3.99 3.946Zm0-1.988c.904 0 1.779-.703 1.779-1.958 0-1.244-.875-1.947-1.78-1.947-.914 0-1.778.703-1.778 1.947 0 1.255.864 1.958 1.779 1.958ZM40.205.19v7.5h-2.09L35.41 3.664h-.01V7.69h-2.08V.19h2.09l2.704 3.956h.01V.191h2.08ZM50.253 7.69H47.97l-.493-1.476h-2.482l-.473 1.476h-2.271l2.703-7.5H47.5l2.754 7.5Zm-4.031-5.28-.663 2.048h1.336l-.673-2.049ZM50.555 7.69V.19h2.191v5.522h2.945V7.69h-5.136ZM56.231 7.69V.19h2.191v5.522h2.946V7.69H56.23ZM61.907 7.69V.19h5.187v1.948H64.1v.904h2.694v1.767h-2.694v.934h2.995V7.69h-5.186ZM70.008 7.69V4.84L67.204.191h2.452l1.498 2.71h.04l1.478-2.71h2.322l-2.795 4.638V7.69h-2.19ZM22.867 17.873v-7.256h1.172v7.256h-1.172ZM28.077 12.421c1.162 0 1.895.742 1.895 1.912v3.54H28.82v-3.17c0-.819-.372-1.209-1.084-1.209-.664 0-1.172.488-1.172 1.16v3.22h-1.152v-5.326h.888l.127.79h.03a1.897 1.897 0 0 1 1.62-.916ZM32.932 12.421c.615 0 1.25.176 1.64.45v1.052c-.38-.302-.985-.517-1.6-.517-.606 0-.938.235-.938.605 0 .4.4.546 1.074.741.84.225 1.777.507 1.777 1.6 0 1.004-.79 1.648-2.109 1.648-.713 0-1.377-.195-1.865-.566v-1.131c.44.4 1.055.722 1.826.722.654 0 1.025-.273 1.025-.663 0-.44-.459-.586-1.19-.81-.87-.253-1.66-.566-1.66-1.512 0-.926.76-1.618 2.02-1.618ZM36.35 11.514c-.382 0-.675-.282-.675-.653 0-.38.293-.663.674-.663.381 0 .674.283.674.663 0 .37-.293.653-.674.653Zm-.577 6.36v-5.326h1.152v5.325h-1.152ZM40.258 18c-1.25 0-2.411-1.082-2.411-2.79 0-1.706 1.152-2.789 2.402-2.789.742 0 1.425.371 1.777.995v-3.355h1.152v7.812h-.957l-.137-.917A2.08 2.08 0 0 1 40.258 18Zm.274-1.053c.85 0 1.513-.712 1.513-1.736 0-1.014-.664-1.736-1.513-1.736-.87 0-1.523.722-1.523 1.736 0 1.024.654 1.736 1.523 1.736ZM49.046 15.113c0 .166-.01.312-.03.449H45.18c.166.936.88 1.482 1.817 1.482.605 0 1.2-.214 1.738-.634v1.034a3.245 3.245 0 0 1-1.856.556c-1.747 0-2.802-1.131-2.802-2.77 0-1.707 1.191-2.809 2.617-2.809 1.289 0 2.353.927 2.353 2.692Zm-3.867-.322h2.773c-.029-.946-.605-1.414-1.269-1.414-.722 0-1.367.537-1.504 1.414ZM49.931 17.873v-5.325h.918l.117.83h.02a1.682 1.682 0 0 1 1.494-.888c.146 0 .263.01.37.029v1.092a1.796 1.796 0 0 0-.4-.039c-.683 0-1.367.41-1.367 1.434v2.867h-1.152Z"/></svg>
